<?xml version="1.0" encoding="UTF-8"?>
<!DOCTYPE svg PUBLIC "-//W3C//DTD SVG 1.1//EN" "http://www.w3.org/Graphics/SVG/1.1/DTD/svg11.dtd">
<svg xmlns="http://www.w3.org/2000/svg" version="1.1" width="47px" height="47px" style="shape-rendering:geometricPrecision; text-rendering:geometricPrecision; image-rendering:optimizeQuality; fill-rule:evenodd; clip-rule:evenodd" xmlns:xlink="http://www.w3.org/1999/xlink">
<g><path style="opacity:0.895" fill="#fefefe" d="M 21.5,-0.5 C 26.1667,-0.5 30.8333,-0.5 35.5,-0.5C 36.6883,0.363622 37.8549,1.36362 39,2.5C 41.6253,8.89322 44.1253,15.2265 46.5,21.5C 46.5,26.1667 46.5,30.8333 46.5,35.5C 44.329,37.5002 41.9957,39.3335 39.5,41C 34.0205,42.7698 28.6872,44.6031 23.5,46.5C 19.1667,46.5 14.8333,46.5 10.5,46.5C 9.31174,45.6364 8.14508,44.6364 7,43.5C 4.37473,37.1068 1.87473,30.7735 -0.5,24.5C -0.5,19.8333 -0.5,15.1667 -0.5,10.5C 0.363622,9.31174 1.36362,8.14508 2.5,7C 8.89322,4.37473 15.2265,1.87473 21.5,-0.5 Z M 27.5,8.5 C 28.7206,9.02832 29.8873,9.69499 31,10.5C 33.7229,16.9832 35.3896,23.6499 36,30.5C 29.4424,33.5782 22.6091,35.4116 15.5,36C 12.8769,29.9668 10.5436,23.8002 8.5,17.5C 9.36359,15.8035 10.6969,14.6368 12.5,14C 17.7138,12.4322 22.7138,10.5989 27.5,8.5 Z"/></g>
</svg>
